HIERARCHY
ROOT Hips
{
 OFFSET 0.000000 0.000000 0.000000
 CHANNELS 6 Xposition Yposition Zposition Yrotation Xrotation Zrotation
 JOINT Chest
 {
  OFFSET 0.000000 9.585900 0.002600
  CHANNELS 3 Yrotation Xrotation Zrotation
  JOINT Chest2
  {
   OFFSET 0.000000 9.601200 -0.005300
   CHANNELS 3 Yrotation Xrotation Zrotation
   JOINT Chest3
   {
    OFFSET 0.000000 9.561800 0.000000
    CHANNELS 3 Yrotation Xrotation Zrotation
    JOINT Chest4
    {
     OFFSET 0.000000 9.552100 0.000000
     CHANNELS 3 Yrotation Xrotation Zrotation
     JOINT Neck
     {
      OFFSET 0.000000 14.453000 0.000000
      CHANNELS 3 Yrotation Xrotation Zrotation
      JOINT Head
      {
       OFFSET 0.000000 8.936500 -0.011300
       CHANNELS 3 Yrotation Xrotation Zrotation
       End Site
       {
        OFFSET 0.000000 17.073600 -0.006000
       }
      }
     }
     JOINT RightCollar
     {
      OFFSET -2.921100 9.558500 0.000000
      CHANNELS 3 Yrotation Xrotation Zrotation
      JOINT RightShoulder
      {
       OFFSET -13.519700 0.000000 0.000000
       CHANNELS 3 Yrotation Xrotation Zrotation
       JOINT RightElbow
       {
        OFFSET 0.000000 -29.696600 0.000000
        CHANNELS 3 Yrotation Xrotation Zrotation
        JOINT RightWrist
        {
         OFFSET 0.000000 -24.004700 0.000000
         CHANNELS 3 Yrotation Xrotation Zrotation
         End Site
         {
          OFFSET 0.000000 -17.728500 0.000000
         }
        }
       }
      }
     }
     JOINT LeftCollar
     {
      OFFSET 2.921100 9.558500 0.000000
      CHANNELS 3 Yrotation Xrotation Zrotation
      JOINT LeftShoulder
      {
       OFFSET 13.519700 0.000000 0.000000
       CHANNELS 3 Yrotation Xrotation Zrotation
       JOINT LeftElbow
       {
        OFFSET 0.000000 -29.696600 0.000000
        CHANNELS 3 Yrotation Xrotation Zrotation
        JOINT LeftWrist
        {
         OFFSET 0.000000 -24.004700 0.000000
         CHANNELS 3 Yrotation Xrotation Zrotation
         End Site
         {
          OFFSET 0.000000 -17.728500 0.000000
         }
        }
       }
      }
     }
    }
   }
  }
 }
 JOINT RightHip
 {
  OFFSET -7.771700 -0.012900 -0.001300
  CHANNELS 3 Yrotation Xrotation Zrotation
  JOINT RightKnee
  {
   OFFSET 0.000000 -40.869800 0.001200
   CHANNELS 3 Yrotation Xrotation Zrotation
   JOINT RightAnkle
   {
    OFFSET 0.000000 -39.717900 0.002100
    CHANNELS 3 Yrotation Xrotation Zrotation
    JOINT RightToe
    {
     OFFSET 0.000000 -4.965400 11.033500
     CHANNELS 3 Yrotation Xrotation Zrotation
     End Site
     {
      OFFSET 0.000000 -1.423100 5.872300
     }
    }
   }
  }
 }
 JOINT LeftHip
 {
  OFFSET 7.771700 -0.012900 -0.001300
  CHANNELS 3 Yrotation Xrotation Zrotation
  JOINT LeftKnee
  {
   OFFSET 0.000000 -40.869800 0.001200
   CHANNELS 3 Yrotation Xrotation Zrotation
   JOINT LeftAnkle
   {
    OFFSET 0.000000 -39.717900 0.002100
    CHANNELS 3 Yrotation Xrotation Zrotation
    JOINT LeftToe
    {
     OFFSET 0.000000 -4.965400 11.033500
     CHANNELS 3 Yrotation Xrotation Zrotation
     End Site
     {
      OFFSET 0.000000 -1.423100 5.872300
     }
    }
   }
  }
 }
}
MOTION
Frames: 9
Frame Time: 0.008333
0.000000 85.388000 0.000000 0.000000 -5.767877 0.000000 0.000000 11.653817 0.000000 0.000000 -5.885947 0.000000 0.000000 -0.000000 0.000000 0.000000 -0.000000 0.000000 0.000000 12.528835 0.000000 0.000000 0.711642 0.000000 0.000000 -0.000000 0.000000 0.000000 0.000000 -90.000000 0.000000 -2.309062 0.000000 0.000000 2.309062 0.000000 0.000000 -0.000000 0.000000 0.000000 -0.000000 90.000000 0.000000 -2.309062 0.000000 0.000000 2.309062 0.000000 0.000000 8.520406 0.000000 0.000000 1.905762 0.000000 -0.000000 -4.658285 0.000000 0.000000 -0.000000 0.000000 0.000000 8.520406 0.000000 0.000000 1.905762 0.000000 -0.000000 -4.658285 0.000000 0.000000 -0.000000 0.000000
29.564801 49.820524 63.256017 172.913993 -30.786346 -6.535900 7.025423 23.239092 7.813741 0.899212 3.720620 0.846762 1.410646 5.982454 1.385654 5.597252 19.442958 5.312780 -2.845112 15.427321 1.602359 -5.931956 -6.993248 4.056293 0.332915 -2.227706 -5.295086 16.894114 -20.984531 -10.878954 -165.060950 -49.680882 170.696207 -8.920765 -12.552601 30.313987 -14.613762 -1.573103 -0.813339 -5.953039 -28.301276 3.030150 133.662998 -46.323387 -161.441390 36.674616 4.559872 -40.877390 -0.273005 -49.083062 9.464663 -130.653701 82.286923 -117.962232 1.239386 -16.578009 -4.331656 -0.210544 1.195763 -0.049468 -9.933858 -53.581044 16.517758 -158.989478 79.742301 -166.024847 2.505192 -18.693718 7.233307 -0.319959 -0.567727 -0.150692
29.559952 49.820068 63.242398 172.999731 -30.859911 -6.540830 6.987131 23.286735 7.804337 0.906645 3.715557 0.850266 1.423566 5.989482 1.378881 5.566286 19.462480 5.317065 -2.836484 15.367707 1.552190 -5.912275 -7.099134 3.963802 0.410538 -2.174697 -5.257288 17.278334 -21.423613 -10.943118 -165.068892 -49.752284 170.678286 -8.996771 -12.595359 30.076708 -14.731858 -1.547346 -0.877931 -6.269545 -28.746828 3.019182 134.273013 -46.649946 -161.754400 36.808434 4.289148 -40.417524 -0.223930 -49.006068 9.385518 -130.773170 82.260145 -118.064769 1.213248 -16.603524 -4.323576 -0.203200 1.197619 -0.031286 -9.926117 -53.510437 16.403238 -159.098675 79.744045 -166.125382 2.512494 -18.694505 7.236109 -0.317810 -0.558872 -0.159191
29.556870 49.819047 63.228860 173.082605 -30.939027 -6.555432 6.929983 23.363576 7.793033 0.927187 3.690403 0.860951 1.435658 5.995610 1.375776 5.552255 19.477197 5.314232 -2.844670 15.308222 1.510094 -5.883179 -7.218889 3.860691 0.491120 -2.146558 -5.212772 17.656436 -21.820567 -11.001613 -165.142943 -49.829454 170.712183 -9.071716 -12.656172 29.853862 -14.813074 -1.526734 -0.905503 -6.646499 -29.164087 2.978860 134.792864 -46.971678 -161.983985 36.949330 4.048190 -39.956939 -0.181870 -48.926273 9.321219 -130.882688 82.232759 -118.155823 1.203698 -16.613132 -4.334115 -0.209251 1.196383 -0.006514 -9.933876 -53.437130 16.311519 -159.151086 79.735674 -166.160479 2.495820 -18.690766 7.236368 -0.303592 -0.544890 -0.153978
29.546476 49.821330 63.206515 173.194997 -31.072687 -6.535450 6.855617 23.469224 7.753535 0.911704 3.697935 0.862878 1.443466 6.004396 1.374559 5.533246 19.494512 5.311941 -2.844292 15.237517 1.461794 -5.849008 -7.352776 3.751392 0.605799 -2.136146 -5.173304 18.026004 -22.182257 -11.061851 -165.313222 -49.907886 170.805713 -9.142084 -12.730290 29.668439 -14.948602 -1.512477 -1.002858 -7.025135 -29.549804 3.032452 135.216262 -47.281561 -162.124092 37.106692 3.838721 -39.489507 -0.109737 -48.787976 9.191749 -131.176803 82.210660 -118.473000 1.215011 -16.647367 -4.274393 -0.259785 1.215721 -0.047137 -9.883543 -53.314230 16.086718 -159.256322 79.729390 -166.231233 2.523030 -18.678280 7.201727 -0.273046 -0.560148 -0.152878
29.541862 49.818407 63.195694 173.244918 -31.147430 -6.525450 6.838317 23.466558 7.762560 0.889679 3.744973 0.850317 1.438425 6.013665 1.379365 5.512115 19.507273 5.317569 -2.833629 15.163508 1.393788 -5.819556 -7.502541 3.644973 0.751052 -2.132056 -5.144224 18.384860 -22.505657 -11.120558 -165.598437 -49.988318 170.975964 -9.192076 -12.811340 29.517143 -15.061111 -1.504056 -1.117996 -7.435095 -29.899340 3.100350 135.561177 -47.580267 -162.194767 37.291966 3.654460 -39.009730 -0.045785 -48.715287 9.121960 -131.279113 82.193244 -118.573872 1.221303 -16.667604 -4.249755 -0.285188 1.229704 -0.058322 -9.873031 -53.245581 15.964453 -159.479584 79.731613 -166.428130 2.543538 -18.692248 7.187731 -0.264855 -0.548200 -0.177142
29.538860 49.814916 63.187912 173.278052 -31.213585 -6.516656 6.821253 23.492971 7.757196 0.888995 3.751237 0.851670 1.452393 5.998741 1.393774 5.476029 19.556123 5.308812 -2.822280 15.068986 1.338641 -5.802077 -7.665352 3.547883 0.908325 -2.152839 -5.094980 18.723292 -22.788779 -11.173431 -166.004541 -50.076073 171.230698 -9.211168 -12.894905 29.387740 -15.149814 -1.505991 -1.192870 -7.853783 -30.218247 3.146578 135.844472 -47.868639 -162.220228 37.507882 3.481314 -38.505629 0.036348 -48.660785 9.070439 -131.310881 82.163515 -118.598704 1.202230 -16.681944 -4.210608 -0.287859 1.240535 -0.070263 -9.862649 -53.184433 15.881635 -159.624902 79.730576 -166.558241 2.545767 -18.709511 7.172781 -0.254783 -0.531098 -0.177430
29.535923 49.810957 63.183323 173.301193 -31.268720 -6.502142 6.805871 23.503118 7.746866 0.889096 3.756619 0.852751 1.449660 6.017580 1.393929 5.477959 19.569448 5.313391 -2.826305 14.965736 1.285931 -5.794317 -7.836953 3.458406 1.058650 -2.183660 -5.041396 19.043927 -23.036311 -11.218362 -166.518061 -50.177515 171.556439 -9.200524 -12.969933 29.278042 -15.252544 -1.504610 -1.263161 -8.238357 -30.503977 3.192449 136.069102 -48.136975 -162.213666 37.733653 3.304172 -37.961988 0.111528 -48.619134 9.029280 -131.323252 82.136546 -118.615344 1.184964 -16.693681 -4.168974 -0.293867 1.251855 -0.084256 -9.841647 -53.134395 15.815350 -159.703588 79.729863 -166.635713 2.541397 -18.726886 7.176503 -0.267467 -0.514987 -0.178317
29.535852 49.807409 63.182118 173.314556 -31.316099 -6.497866 6.799204 23.526347 7.745610 0.893946 3.733447 0.855874 1.441934 6.057572 1.391454 5.486657 19.554518 5.317851 -2.830861 14.858099 1.233203 -5.795412 -8.021546 3.374414 1.196646 -2.219135 -4.984436 19.364535 -23.253514 -11.261235 -167.093377 -50.302131 171.915306 -9.174507 -13.028385 29.195185 -15.355742 -1.494885 -1.331671 -8.576517 -30.752384 3.236491 136.226312 -48.378652 -162.171576 37.935379 3.124409 -37.390288 0.177904 -48.587917 9.016200 -131.281918 82.107011 -118.580702 1.183370 -16.698680 -4.154200 -0.315296 1.261493 -0.072648 -9.829687 -53.094965 15.770730 -159.764721 79.724318 -166.682912 2.545429 -18.744043 7.166430 -0.258073 -0.501575 -0.173553
